<?xml version="1.0" standalone="no"?>
<!DOCTYPE svg PUBLIC "-//W3C//DTD SVG 20010904//EN"
 "http://www.w3.org/TR/2001/REC-SVG-20010904/DTD/svg10.dtd">
<svg version="1.0" xmlns="http://www.w3.org/2000/svg"
 width="512.000000pt" height="512.000000pt" viewBox="0 0 512.000000 512.000000"
 preserveAspectRatio="xMidYMid meet">
<metadata>
Created by potrace 1.14, written by Peter Selinger 2001-2017
</metadata>
<g transform="translate(0.000000,512.000000) scale(0.100000,-0.100000)"
fill="#000000" stroke="none">
<path d="M1582 4873 c-110 -110 -197 -216 -289 -351 -236 -347 -367 -679 -437
-1106 -22 -130 -29 -531 -13 -691 17 -166 60 -387 111 -565 l25 -85 1 90 c2
102 6 178 25 435 24 317 83 710 154 1021 18 75 34 145 36 155 9 45 69 248 102
349 90 278 250 634 357 798 30 45 11 31 -72 -50z"/>
<path d="M2220 4859 c-338 -209 -573 -463 -746 -807 -166 -328 -247 -702 -248
-1132 0 -131 10 -285 24 -380 5 -36 10 -71 10 -78 0 -7 4 -11 9 -8 5 3 9 16 9
28 0 31 11 131 22 198 5 30 11 69 13 85 116 782 490 1589 969 2093 38 39 65
72 61 72 -4 0 -60 -32 -123 -71z"/>
<path d="M2840 4899 c-157 -87 -278 -165 -355 -226 -361 -289 -583 -575 -739
-951 -53 -129 -113 -333 -130 -446 -4 -21 -8 -48 -11 -60 -18 -82 -39 -446
-25 -446 3 0 14 30 24 68 33 117 142 411 211 567 242 545 536 981 918 1358 93
92 168 167 166 167 -2 -1 -29 -15 -59 -31z"/>
<path d="M3558 4814 c-2 -1 -28 -5 -58 -9 -83 -9 -228 -50 -344 -95 -442 -173
-834 -613 -1079 -1210 -63 -155 -151 -430 -138 -430 4 0 13 19 20 43 20 66
153 334 225 452 323 527 822 967 1371 1207 l110 48 -52 -2 c-29 0 -54 -2 -55
-4z"/>
<path d="M962 4677 c-197 -261 -362 -626 -416 -917 -2 -14 -11 -63 -20 -110
-15 -79 -18 -102 -31 -200 -17 -129 -22 -388 -11 -589 4 -74 9 -141 11 -150 1
-9 6 -45 10 -81 26 -250 108 -613 201 -888 13 -39 13 -45 -5 -70 -25 -36 -138
-229 -190 -325 -23 -42 -43 -77 -44 -77 -1 0 -2 48 -3 108 0 108 -12 407 -19
472 -2 19 -6 87 -10 150 -3 63 -8 126 -10 140 -2 14 -6 59 -10 100 -6 75 -11
130 -20 218 -3 26 -7 72 -10 102 -3 30 -10 89 -15 130 -5 41 -12 100 -16 130
-3 30 -8 69 -10 85 -2 17 -6 53 -9 80 -10 83 -16 129 -20 155 -2 14 -9 63 -15
110 -17 126 -20 152 -25 180 -2 14 -7 45 -10 70 -11 75 -64 422 -73 470 l-8
45 -7 -40 c-4 -22 -9 -62 -13 -90 -3 -27 -7 -61 -9 -75 -2 -14 -7 -52 -10 -85
-4 -33 -8 -71 -10 -85 -2 -14 -7 -70 -11 -125 -3 -55 -8 -109 -10 -120 -8 -41
-18 -328 -18 -510 0 -170 8 -347 19 -460 2 -22 6 -71 10 -110 3 -38 8 -77 10
-85 2 -8 7 -35 10 -60 3 -25 8 -56 10 -70 3 -14 7 -41 10 -60 20 -125 103
-436 135 -505 5 -11 24 -54 42 -95 18 -41 50 -105 71 -141 l37 -66 -70 -141
c-111 -224 -225 -499 -348 -839 -16 -46 -27 -83 -23 -83 17 2 189 250 277 402
60 102 187 356 244 483 101 229 277 546 432 777 l77 117 78 -52 c177 -116 425
-228 653 -293 193 -56 333 -76 535 -79 248 -4 380 15 610 90 212 69 498 240
655 392 l45 43 -79 -36 c-131 -60 -393 -147 -508 -169 -11 -2 -27 -6 -36 -9
-20 -6 -227 -42 -287 -50 -207 -28 -509 -37 -695 -22 -165 13 -186 16 -290 31
-14 2 -47 7 -75 10 -27 4 -86 15 -130 25 -44 10 -97 21 -117 24 -62 11 -332
87 -342 96 -7 7 87 150 127 192 7 7 31 38 55 68 23 30 51 65 61 78 l19 22 89
-59 c111 -74 194 -118 308 -164 88 -35 240 -81 300 -91 17 -3 41 -8 55 -11
197 -39 497 -41 716 -4 33 5 75 12 94 15 128 20 455 121 590 181 167 74 202
91 280 131 47 24 90 49 95 55 7 7 6 8 -1 4 -15 -8 -267 -63 -404 -87 -58 -11
-116 -21 -130 -24 -24 -5 -55 -9 -130 -20 -52 -8 -189 -25 -242 -31 -27 -3
-67 -7 -90 -10 -24 -2 -81 -7 -128 -10 -47 -4 -105 -8 -130 -11 -54 -4 -476
-5 -540 0 -110 8 -199 18 -250 26 -30 5 -71 12 -90 15 -113 19 -360 85 -379
101 -7 6 108 137 241 276 l57 60 28 -20 c36 -25 198 -102 283 -135 125 -47
186 -66 300 -91 490 -107 995 -21 1473 252 107 60 351 231 343 240 -2 2 -50
-17 -107 -41 -109 -46 -323 -124 -362 -131 -13 -2 -54 -13 -92 -24 -133 -39
-394 -88 -580 -108 -235 -25 -702 -25 -915 -1 -226 27 -328 43 -350 57 -16 10
-18 7 144 157 49 46 93 80 99 76 6 -3 7 -1 3 5 -3 6 0 14 8 19 8 4 29 22 48
38 18 17 64 55 103 85 38 30 77 61 85 68 50 41 280 200 367 254 138 84 148 91
96 74 -71 -25 -295 -142 -424 -224 -191 -120 -432 -304 -574 -437 -176 -166
-318 -312 -405 -415 -30 -36 -57 -67 -60 -70 -3 -3 -24 -27 -45 -55 -22 -27
-42 -52 -45 -55 -16 -15 -192 -260 -253 -352 -40 -59 -72 -106 -73 -105 -1 1
-5 31 -8 67 -4 36 -9 81 -11 100 -15 123 -18 167 -30 430 -9 194 -9 609 -1
730 4 47 8 117 11 155 6 88 15 182 20 215 2 14 7 54 10 90 3 36 10 90 16 120
5 30 12 75 15 100 3 25 21 124 40 220 55 282 132 544 217 748 19 45 34 82 32
82 -2 0 -35 -42 -73 -93z"/>
<path d="M3967 4504 c-1 -1 -42 -5 -92 -9 -99 -8 -101 -8 -165 -19 -611 -104
-1085 -448 -1326 -961 -43 -93 -88 -215 -81 -221 2 -3 21 22 42 53 260 395
883 832 1590 1115 55 22 102 41 104 43 3 4 -68 2 -72 -1z"/>
<path d="M4945 4439 c-316 -64 -663 -154 -935 -243 -571 -186 -1046 -440
-1285 -686 l-50 -52 35 7 c48 10 359 119 569 199 222 85 504 201 791 326 221
97 287 126 463 209 49 22 90 41 92 41 2 0 50 22 107 49 56 27 123 58 148 69
106 48 232 112 219 111 -8 -1 -77 -14 -154 -30z"/>
<path d="M4215 3735 c-154 -34 -347 -79 -430 -100 -82 -20 -157 -39 -165 -41
-181 -43 -617 -167 -815 -231 -268 -87 -511 -175 -528 -192 -15 -15 183 -44
298 -45 515 0 1123 198 1823 596 67 38 122 72 122 74 0 8 -25 3 -305 -61z"/>
<path d="M4305 3509 c-343 -272 -851 -505 -1305 -598 -271 -56 -599 -79 -825
-59 -130 11 -188 17 -230 24 -78 12 -28 -5 100 -34 143 -33 151 -35 310 -57
143 -20 209 -24 385 -24 158 -1 271 7 375 24 11 2 38 6 61 10 77 11 99 16 194
41 286 77 538 217 743 413 56 54 164 179 200 231 9 14 24 35 33 48 22 30 17
28 -41 -19z"/>
<path d="M4921 2577 c-135 -219 -356 -535 -367 -524 -3 2 9 31 25 63 38 77
100 274 86 274 -2 0 -23 -35 -48 -77 -68 -119 -199 -305 -303 -433 -163 -201
-160 -199 -91 -60 51 101 114 270 102 270 -1 0 -22 -30 -46 -67 -231 -360
-528 -676 -884 -942 -196 -147 -378 -254 -565 -331 -429 -179 -1048 -344
-1592 -424 -95 -14 -175 -24 -333 -41 -27 -3 -63 -7 -80 -9 -33 -5 -270 -19
-322 -20 -44 -1 -50 -12 -11 -19 156 -28 755 -30 929 -3 13 3 51 8 84 11 33 4
73 9 89 11 23 3 174 29 290 50 71 13 310 76 407 107 87 28 115 32 160 27 96
-10 386 -2 509 15 58 7 128 18 145 21 11 2 34 7 50 10 272 48 617 186 858 344
214 139 413 322 543 497 31 43 65 87 73 98 15 19 15 19 -4 5 -11 -8 -42 -33
-70 -56 -437 -362 -1118 -682 -1823 -858 -177 -44 -302 -69 -310 -62 -3 3 0 6
7 6 15 0 330 125 384 152 21 10 100 30 175 43 223 40 343 71 511 132 502 182
910 494 1191 913 49 72 174 309 167 316 -2 3 -40 -37 -84 -88 -274 -320 -645
-624 -1068 -874 -153 -91 -355 -200 -470 -254 -178 -84 -238 -111 -241 -108
-1 2 45 28 103 58 58 30 165 90 237 133 72 43 172 99 221 124 640 323 1188
859 1389 1358 15 39 34 85 42 103 8 18 14 40 13 50 0 13 -2 14 -6 3 -6 -15
-115 -177 -162 -241 -54 -74 -189 -239 -262 -320 -41 -47 -84 -95 -94 -107
-11 -13 -23 -23 -28 -23 -5 0 11 24 36 53 87 103 307 415 328 463 2 5 39 71
82 147 83 145 103 207 28 84z"/>
<path d="M3160 1577 c-51 -26 -316 -106 -400 -121 -19 -3 -46 -8 -60 -11 -62
-13 -223 -35 -305 -42 -178 -15 -584 -8 -755 12 -19 3 -57 7 -85 10 -27 3 -61
8 -75 10 -14 2 -56 9 -95 15 -137 22 -475 97 -545 121 -90 32 245 -189 405
-266 192 -92 342 -140 536 -169 124 -18 387 -14 494 8 44 10 91 19 105 22 83
15 303 96 416 154 124 63 296 174 374 240 36 32 32 39 -10 17z"/>
<path d="M625 1080 c122 -83 356 -175 525 -206 14 -2 48 -9 75 -15 28 -6 68
-13 90 -15 22 -3 51 -7 65 -10 74 -13 213 -19 450 -19 267 0 403 7 570 30 14
2 52 7 85 11 33 4 69 10 80 15 l20 8 -20 1 c-22 2 -27 2 -175 30 -90 17 -495
84 -570 95 -14 2 -45 6 -70 10 -25 4 -56 8 -70 10 -14 2 -45 6 -70 10 -75 11
-93 13 -155 20 -33 3 -71 7 -85 10 -53 9 -148 18 -295 30 -49 3 -101 8 -115
11 -14 2 -108 6 -210 10 l-185 6 60 -42z"/>
</g>
</svg>
